<svg id="Capa_1" enable-background="new 0 0 511.813 511.813" height="512" viewBox="0 0 511.813 511.813" width="512" fill="#ffffff" xmlns="http://www.w3.org/2000/svg"><g><path d="m330.82 425.71 47.401 47.402h71.189c34.408 0 62.401-27.993 62.401-62.402v-9.312c-16.452 15.091-38.369 24.312-62.401 24.312z"/><path d="m511.813 265.388c-7.152 3.532-15.199 5.519-23.701 5.519h-141.952c-6.509 22.331-27.149 38.701-51.553 38.701-29.611 0-53.701-24.09-53.701-53.701 0-29.106 23.279-52.86 52.195-53.662l21.091-86.141h-198.09v47.402h23.701c29.611 0 53.701 24.09 53.701 53.701v131.103h-77.402v47.402h333.309c34.408 0 62.401-27.993 62.401-62.402v-67.922z"/><path d="m77.401 38.701h279.607v47.402h-279.607z"/><path d="m270.906 255.906c0 13.068 10.632 23.701 23.701 23.701 13.068 0 23.7-10.632 23.7-23.701s-10.632-23.701-23.7-23.701c-13.069.001-23.701 10.633-23.701 23.701z"/><path d="m77.401 425.71h124.804v47.402h-124.804z"/><path d="m62.401 318.308h101.104v-47.402h-124.804v23.701c0 13.069 10.632 23.701 23.7 23.701z"/><path d="m23.701 240.906h139.804v-23.701c0-13.069-10.632-23.701-23.701-23.701h-139.804v23.701c0 13.069 10.633 23.701 23.701 23.701z"/></g></svg>