<svg id="Capa_1" enable-background="new 0 0 512.001 512.001" height="512" viewBox="0 0 512.001 512.001" width="512" fill="#ffffff" xmlns="http://www.w3.org/2000/svg"><g><path d="m163.748 231.581c1.586 5.936 6.639 10.285 12.709 11.01l83.051 9.902 9.902 83.051c.729 6.156 5.176 11.153 11.01 12.709 5.934 1.584 12.222-.601 15.899-5.5l50.092-66.974 76.866 32.948c5.645 2.413 12.182 1.161 16.522-3.179s5.594-10.876 3.181-16.522l-32.95-76.866 66.974-50.092c4.9-3.677 7.086-9.965 5.5-15.899-1.584-5.936-6.639-10.307-12.709-11.01l-83.049-9.902-9.902-83.051c-.716-6.081-5.076-11.125-11.012-12.709-5.934-1.586-12.222.601-15.899 5.5l-50.09 66.974-76.868-32.948c-5.645-2.415-12.18-1.161-16.522 3.179-4.34 4.34-5.592 10.876-3.179 16.522l32.948 76.866-66.974 50.092c-4.899 3.677-7.083 9.965-5.5 15.899z"/><path d="m439.8 93.416 21.213-21.213c5.863-5.863 5.863-15.35 0-21.213-5.861-5.863-15.35-5.863-21.213 0l-21.213 21.213c-5.863 5.863-5.863 15.352 0 21.213 5.863 5.863 15.35 5.863 21.213 0z"/><path d="m288.191 58.479c8.005-2.144 12.75-10.369 10.605-18.375l-7.767-28.982c-2.166-8.007-10.369-12.751-18.376-10.607-8.005 2.144-12.75 10.369-10.605 18.375l7.767 28.982c2.123 7.93 10.306 12.757 18.376 10.607z"/><path d="m358.065 319.272c-8.007 2.144-12.751 10.369-10.607 18.375l7.769 28.982c2.122 7.93 10.305 12.757 18.375 10.607 8.007-2.144 12.751-10.369 10.607-18.375l-7.769-28.982c-2.155-7.995-10.378-12.762-18.375-10.607z"/><path d="m182.125 135.563-28.982-7.767c-8.007-2.144-16.232 2.598-18.376 10.605-2.151 8.082 2.688 16.256 10.607 18.375l28.982 7.769c8.007 2.144 16.23-2.6 18.375-10.607 2.133-8.017-2.632-16.242-10.606-18.375z"/><path d="m453.524 223.814c-2.151 8.08 2.688 16.254 10.607 18.375l28.982 7.767c8.007 2.144 16.23-2.598 18.375-10.605s-2.64-16.252-10.605-18.375l-28.982-7.769c-8.008-2.144-16.233 2.6-18.377 10.607z"/><path d="m25.611 507.603c5.861 5.863 15.35 5.863 21.213 0l190.204-190.202-4.519-37.908-37.905-4.519-190.208 190.204c-5.861 5.863-5.861 15.35 0 21.213z"/></g></svg>