<svg id="Capa_1" enable-background="new 0 0 512 512" height="512" viewBox="0 0 512 512" width="512" fill="#ffffff" xmlns="http://www.w3.org/2000/svg"><g><path d="m214.277 407.325-109.602-109.602c-17.545-17.545-46.094-17.546-63.64 0s-17.545 46.094 0 63.64c5.858 5.858 15.355 5.858 21.213 0s5.858-15.355 0-21.213c-5.848-5.848-5.849-15.364 0-21.213s15.365-5.848 21.213 0l28.284 28.284-100.761 100.762c-14.645 14.645-14.645 38.388 0 53.033 14.645 14.645 38.388 14.645 53.033 0l100.763-100.763 28.284 28.284c5.848 5.848 5.849 15.364 0 21.213s-15.365 5.848-21.213 0c-5.858-5.858-15.355-5.858-21.213 0s-5.858 15.355 0 21.213c17.545 17.545 46.094 17.546 63.64 0 17.544-17.544 17.544-46.093-.001-63.638z"/><path d="m396.257 225.345 26.482-26.482c49.087-49.087 80.447-113.109 89.14-181.981 1.227-9.72-7.041-17.987-16.76-16.76-68.872 8.694-132.895 40.054-181.981 89.14l-26.482 26.482c-17.756 17.756-33.73 37.21-47.693 58.082-28.586 42.731-65.431 79.249-108.312 107.447l39.432 39.432 239.024-239.025c5.858-5.858 15.355-5.858 21.213 0s5.858 15.355 0 21.213l-239.024 239.025 39.432 39.432c28.198-42.881 64.716-79.727 107.447-108.312 20.872-13.963 40.325-29.937 58.082-47.693z"/></g></svg>